<mxfile host="app.diagrams.net" modified="2024-03-11T07:59:17.285Z" agent="Mozilla/5.0 (Windows NT 10.0; Win64; x64) AppleWebKit/537.36 (KHTML, like Gecko) Chrome/122.0.0.0 Safari/537.36" etag="sdTryc9IjrDEjEUXX34R" version="24.0.2" type="device">
  <diagram name="Seite-1" id="S_kGu9h4DMqjJRLT6uhB">
    <mxGraphModel dx="750" dy="447" grid="1" gridSize="10" guides="1" tooltips="1" connect="1" arrows="1" fold="1" page="1" pageScale="1" pageWidth="1169" pageHeight="827" math="0" shadow="0">
      <root>
        <mxCell id="0" />
        <mxCell id="1" parent="0" />
        <mxCell id="KYKL-_47aOYhPU-UNoqU-1" value="Category" style="rounded=0;whiteSpace=wrap;html=1;" vertex="1" parent="1">
          <mxGeometry x="235" y="340" width="120" height="60" as="geometry" />
        </mxCell>
        <mxCell id="KYKL-_47aOYhPU-UNoqU-56" style="edgeStyle=orthogonalEdgeStyle;rounded=0;orthogonalLoop=1;jettySize=auto;html=1;exitX=0.25;exitY=1;exitDx=0;exitDy=0;entryX=1;entryY=0.5;entryDx=0;entryDy=0;strokeColor=default;align=center;verticalAlign=middle;fontFamily=Helvetica;fontSize=11;fontColor=default;labelBackgroundColor=default;endArrow=none;endFill=0;" edge="1" parent="1" source="KYKL-_47aOYhPU-UNoqU-3" target="KYKL-_47aOYhPU-UNoqU-54">
          <mxGeometry relative="1" as="geometry" />
        </mxCell>
        <mxCell id="KYKL-_47aOYhPU-UNoqU-58" style="edgeStyle=orthogonalEdgeStyle;rounded=0;orthogonalLoop=1;jettySize=auto;html=1;exitX=0.75;exitY=1;exitDx=0;exitDy=0;entryX=0;entryY=0.5;entryDx=0;entryDy=0;strokeColor=default;align=center;verticalAlign=middle;fontFamily=Helvetica;fontSize=11;fontColor=default;labelBackgroundColor=default;endArrow=none;endFill=0;" edge="1" parent="1" source="KYKL-_47aOYhPU-UNoqU-3" target="KYKL-_47aOYhPU-UNoqU-55">
          <mxGeometry relative="1" as="geometry" />
        </mxCell>
        <mxCell id="KYKL-_47aOYhPU-UNoqU-3" value="Sharing" style="rounded=0;whiteSpace=wrap;html=1;" vertex="1" parent="1">
          <mxGeometry x="500" y="100" width="120" height="60" as="geometry" />
        </mxCell>
        <mxCell id="KYKL-_47aOYhPU-UNoqU-4" value="Task" style="whiteSpace=wrap;html=1;" vertex="1" parent="1">
          <mxGeometry x="500" y="570" width="120" height="60" as="geometry" />
        </mxCell>
        <mxCell id="KYKL-_47aOYhPU-UNoqU-60" style="edgeStyle=orthogonalEdgeStyle;rounded=0;orthogonalLoop=1;jettySize=auto;html=1;exitX=0;exitY=0.75;exitDx=0;exitDy=0;entryX=1;entryY=0.5;entryDx=0;entryDy=0;strokeColor=default;align=center;verticalAlign=middle;fontFamily=Helvetica;fontSize=11;fontColor=default;labelBackgroundColor=default;endArrow=none;endFill=0;" edge="1" parent="1" source="KYKL-_47aOYhPU-UNoqU-5" target="KYKL-_47aOYhPU-UNoqU-50">
          <mxGeometry relative="1" as="geometry" />
        </mxCell>
        <mxCell id="KYKL-_47aOYhPU-UNoqU-62" style="edgeStyle=orthogonalEdgeStyle;rounded=0;orthogonalLoop=1;jettySize=auto;html=1;exitX=0.25;exitY=1;exitDx=0;exitDy=0;entryX=1;entryY=0.5;entryDx=0;entryDy=0;strokeColor=default;align=center;verticalAlign=middle;fontFamily=Helvetica;fontSize=11;fontColor=default;labelBackgroundColor=default;endArrow=none;endFill=0;" edge="1" parent="1" source="KYKL-_47aOYhPU-UNoqU-5" target="KYKL-_47aOYhPU-UNoqU-52">
          <mxGeometry relative="1" as="geometry" />
        </mxCell>
        <mxCell id="KYKL-_47aOYhPU-UNoqU-5" value="User" style="whiteSpace=wrap;html=1;" vertex="1" parent="1">
          <mxGeometry x="770" y="340" width="120" height="60" as="geometry" />
        </mxCell>
        <mxCell id="KYKL-_47aOYhPU-UNoqU-49" style="edgeStyle=none;rounded=0;orthogonalLoop=1;jettySize=auto;html=1;exitX=0.5;exitY=1;exitDx=0;exitDy=0;entryX=0.75;entryY=0;entryDx=0;entryDy=0;strokeColor=default;align=center;verticalAlign=middle;fontFamily=Helvetica;fontSize=11;fontColor=default;labelBackgroundColor=default;endArrow=none;endFill=0;" edge="1" parent="1" source="KYKL-_47aOYhPU-UNoqU-6" target="KYKL-_47aOYhPU-UNoqU-5">
          <mxGeometry relative="1" as="geometry" />
        </mxCell>
        <mxCell id="KYKL-_47aOYhPU-UNoqU-6" value="Name" style="ellipse;whiteSpace=wrap;html=1;" vertex="1" parent="1">
          <mxGeometry x="840" y="250" width="90" height="40" as="geometry" />
        </mxCell>
        <mxCell id="KYKL-_47aOYhPU-UNoqU-48" style="edgeStyle=none;rounded=0;orthogonalLoop=1;jettySize=auto;html=1;exitX=0;exitY=1;exitDx=0;exitDy=0;entryX=1;entryY=0;entryDx=0;entryDy=0;strokeColor=default;align=center;verticalAlign=middle;fontFamily=Helvetica;fontSize=11;fontColor=default;labelBackgroundColor=default;endArrow=none;endFill=0;" edge="1" parent="1" source="KYKL-_47aOYhPU-UNoqU-7" target="KYKL-_47aOYhPU-UNoqU-5">
          <mxGeometry relative="1" as="geometry" />
        </mxCell>
        <mxCell id="KYKL-_47aOYhPU-UNoqU-7" value="&lt;u&gt;UserID&lt;/u&gt;" style="ellipse;whiteSpace=wrap;html=1;" vertex="1" parent="1">
          <mxGeometry x="950" y="260" width="90" height="40" as="geometry" />
        </mxCell>
        <mxCell id="KYKL-_47aOYhPU-UNoqU-9" value="Username" style="ellipse;whiteSpace=wrap;html=1;" vertex="1" parent="1">
          <mxGeometry x="970" y="318" width="90" height="40" as="geometry" />
        </mxCell>
        <mxCell id="KYKL-_47aOYhPU-UNoqU-46" style="edgeStyle=none;rounded=0;orthogonalLoop=1;jettySize=auto;html=1;exitX=0;exitY=0.5;exitDx=0;exitDy=0;entryX=1;entryY=0.75;entryDx=0;entryDy=0;strokeColor=default;align=center;verticalAlign=middle;fontFamily=Helvetica;fontSize=11;fontColor=default;labelBackgroundColor=default;endArrow=none;endFill=0;" edge="1" parent="1" source="KYKL-_47aOYhPU-UNoqU-10" target="KYKL-_47aOYhPU-UNoqU-5">
          <mxGeometry relative="1" as="geometry" />
        </mxCell>
        <mxCell id="KYKL-_47aOYhPU-UNoqU-10" value="Passwort" style="ellipse;whiteSpace=wrap;html=1;" vertex="1" parent="1">
          <mxGeometry x="960" y="370" width="90" height="40" as="geometry" />
        </mxCell>
        <mxCell id="KYKL-_47aOYhPU-UNoqU-44" style="edgeStyle=none;rounded=0;orthogonalLoop=1;jettySize=auto;html=1;exitX=0;exitY=0.5;exitDx=0;exitDy=0;entryX=1;entryY=0.5;entryDx=0;entryDy=0;strokeColor=default;align=center;verticalAlign=middle;fontFamily=Helvetica;fontSize=11;fontColor=default;labelBackgroundColor=default;endArrow=none;endFill=0;" edge="1" parent="1" source="KYKL-_47aOYhPU-UNoqU-11" target="KYKL-_47aOYhPU-UNoqU-3">
          <mxGeometry relative="1" as="geometry" />
        </mxCell>
        <mxCell id="KYKL-_47aOYhPU-UNoqU-11" value="&lt;u&gt;sharingID&lt;/u&gt;" style="ellipse;whiteSpace=wrap;html=1;" vertex="1" parent="1">
          <mxGeometry x="740" y="60" width="90" height="40" as="geometry" />
        </mxCell>
        <mxCell id="KYKL-_47aOYhPU-UNoqU-45" style="edgeStyle=none;rounded=0;orthogonalLoop=1;jettySize=auto;html=1;exitX=0;exitY=0.5;exitDx=0;exitDy=0;entryX=0.75;entryY=1;entryDx=0;entryDy=0;strokeColor=default;align=center;verticalAlign=middle;fontFamily=Helvetica;fontSize=11;fontColor=default;labelBackgroundColor=default;endArrow=none;endFill=0;" edge="1" parent="1" source="KYKL-_47aOYhPU-UNoqU-12" target="KYKL-_47aOYhPU-UNoqU-5">
          <mxGeometry relative="1" as="geometry" />
        </mxCell>
        <mxCell id="KYKL-_47aOYhPU-UNoqU-12" value="Email" style="ellipse;whiteSpace=wrap;html=1;" vertex="1" parent="1">
          <mxGeometry x="910" y="420" width="90" height="40" as="geometry" />
        </mxCell>
        <mxCell id="KYKL-_47aOYhPU-UNoqU-43" style="edgeStyle=none;rounded=0;orthogonalLoop=1;jettySize=auto;html=1;exitX=0;exitY=0;exitDx=0;exitDy=0;strokeColor=default;align=center;verticalAlign=middle;fontFamily=Helvetica;fontSize=11;fontColor=default;labelBackgroundColor=default;endArrow=none;endFill=0;" edge="1" parent="1" source="KYKL-_47aOYhPU-UNoqU-13">
          <mxGeometry relative="1" as="geometry">
            <mxPoint x="620" y="110" as="targetPoint" />
          </mxGeometry>
        </mxCell>
        <mxCell id="KYKL-_47aOYhPU-UNoqU-13" value="UserID" style="ellipse;whiteSpace=wrap;html=1;" vertex="1" parent="1">
          <mxGeometry x="640" y="30" width="90" height="40" as="geometry" />
        </mxCell>
        <mxCell id="KYKL-_47aOYhPU-UNoqU-42" style="edgeStyle=none;rounded=0;orthogonalLoop=1;jettySize=auto;html=1;exitX=0.5;exitY=0;exitDx=0;exitDy=0;entryX=0.5;entryY=0;entryDx=0;entryDy=0;strokeColor=default;align=center;verticalAlign=middle;fontFamily=Helvetica;fontSize=11;fontColor=default;labelBackgroundColor=default;endArrow=none;endFill=0;" edge="1" parent="1" source="KYKL-_47aOYhPU-UNoqU-16" target="KYKL-_47aOYhPU-UNoqU-3">
          <mxGeometry relative="1" as="geometry" />
        </mxCell>
        <mxCell id="KYKL-_47aOYhPU-UNoqU-16" value="CategoryID" style="ellipse;whiteSpace=wrap;html=1;" vertex="1" parent="1">
          <mxGeometry x="515" y="30" width="90" height="40" as="geometry" />
        </mxCell>
        <mxCell id="KYKL-_47aOYhPU-UNoqU-41" style="edgeStyle=none;rounded=0;orthogonalLoop=1;jettySize=auto;html=1;exitX=1;exitY=0;exitDx=0;exitDy=0;entryX=0;entryY=0.25;entryDx=0;entryDy=0;endArrow=none;endFill=0;" edge="1" parent="1" source="KYKL-_47aOYhPU-UNoqU-17" target="KYKL-_47aOYhPU-UNoqU-3">
          <mxGeometry relative="1" as="geometry" />
        </mxCell>
        <mxCell id="KYKL-_47aOYhPU-UNoqU-17" value="EmpfÃ¤ngerUser&lt;br&gt;ID" style="ellipse;whiteSpace=wrap;html=1;" vertex="1" parent="1">
          <mxGeometry x="368" y="40" width="100" height="50" as="geometry" />
        </mxCell>
        <mxCell id="KYKL-_47aOYhPU-UNoqU-30" style="edgeStyle=none;rounded=0;orthogonalLoop=1;jettySize=auto;html=1;exitX=1;exitY=1;exitDx=0;exitDy=0;entryX=0.5;entryY=0;entryDx=0;entryDy=0;strokeColor=default;align=center;verticalAlign=middle;fontFamily=Helvetica;fontSize=11;fontColor=default;labelBackgroundColor=default;endArrow=none;endFill=0;" edge="1" parent="1" source="KYKL-_47aOYhPU-UNoqU-18" target="KYKL-_47aOYhPU-UNoqU-1">
          <mxGeometry relative="1" as="geometry" />
        </mxCell>
        <mxCell id="KYKL-_47aOYhPU-UNoqU-18" value="&lt;u&gt;CategoryID&lt;/u&gt;" style="ellipse;whiteSpace=wrap;html=1;" vertex="1" parent="1">
          <mxGeometry x="160" y="240" width="90" height="40" as="geometry" />
        </mxCell>
        <mxCell id="KYKL-_47aOYhPU-UNoqU-31" style="edgeStyle=none;rounded=0;orthogonalLoop=1;jettySize=auto;html=1;exitX=1;exitY=1;exitDx=0;exitDy=0;entryX=0;entryY=0;entryDx=0;entryDy=0;strokeColor=default;align=center;verticalAlign=middle;fontFamily=Helvetica;fontSize=11;fontColor=default;labelBackgroundColor=default;endArrow=none;endFill=0;" edge="1" parent="1" source="KYKL-_47aOYhPU-UNoqU-19" target="KYKL-_47aOYhPU-UNoqU-1">
          <mxGeometry relative="1" as="geometry" />
        </mxCell>
        <mxCell id="KYKL-_47aOYhPU-UNoqU-19" value="UserID" style="ellipse;whiteSpace=wrap;html=1;" vertex="1" parent="1">
          <mxGeometry x="85" y="280" width="90" height="40" as="geometry" />
        </mxCell>
        <mxCell id="KYKL-_47aOYhPU-UNoqU-32" style="edgeStyle=none;rounded=0;orthogonalLoop=1;jettySize=auto;html=1;exitX=1;exitY=0.5;exitDx=0;exitDy=0;entryX=0;entryY=0.25;entryDx=0;entryDy=0;strokeColor=default;align=center;verticalAlign=middle;fontFamily=Helvetica;fontSize=11;fontColor=default;labelBackgroundColor=default;endArrow=none;endFill=0;" edge="1" parent="1" source="KYKL-_47aOYhPU-UNoqU-21" target="KYKL-_47aOYhPU-UNoqU-1">
          <mxGeometry relative="1" as="geometry" />
        </mxCell>
        <mxCell id="KYKL-_47aOYhPU-UNoqU-21" value="Name" style="ellipse;whiteSpace=wrap;html=1;" vertex="1" parent="1">
          <mxGeometry x="85" y="350" width="90" height="40" as="geometry" />
        </mxCell>
        <mxCell id="KYKL-_47aOYhPU-UNoqU-34" style="edgeStyle=none;rounded=0;orthogonalLoop=1;jettySize=auto;html=1;exitX=1;exitY=0.5;exitDx=0;exitDy=0;entryX=0;entryY=0.25;entryDx=0;entryDy=0;strokeColor=default;align=center;verticalAlign=middle;fontFamily=Helvetica;fontSize=11;fontColor=default;labelBackgroundColor=default;endArrow=none;endFill=0;" edge="1" parent="1" source="KYKL-_47aOYhPU-UNoqU-22" target="KYKL-_47aOYhPU-UNoqU-4">
          <mxGeometry relative="1" as="geometry" />
        </mxCell>
        <mxCell id="KYKL-_47aOYhPU-UNoqU-22" value="&lt;u&gt;ToDoID&lt;/u&gt;" style="ellipse;whiteSpace=wrap;html=1;" vertex="1" parent="1">
          <mxGeometry x="320" y="570" width="90" height="40" as="geometry" />
        </mxCell>
        <mxCell id="KYKL-_47aOYhPU-UNoqU-35" style="edgeStyle=none;rounded=0;orthogonalLoop=1;jettySize=auto;html=1;exitX=1;exitY=0.5;exitDx=0;exitDy=0;entryX=0;entryY=0.5;entryDx=0;entryDy=0;strokeColor=default;align=center;verticalAlign=middle;fontFamily=Helvetica;fontSize=11;fontColor=default;labelBackgroundColor=default;endArrow=none;endFill=0;" edge="1" parent="1" source="KYKL-_47aOYhPU-UNoqU-23" target="KYKL-_47aOYhPU-UNoqU-4">
          <mxGeometry relative="1" as="geometry" />
        </mxCell>
        <mxCell id="KYKL-_47aOYhPU-UNoqU-23" value="CategoryID" style="ellipse;whiteSpace=wrap;html=1;" vertex="1" parent="1">
          <mxGeometry x="330" y="620" width="90" height="40" as="geometry" />
        </mxCell>
        <mxCell id="KYKL-_47aOYhPU-UNoqU-36" style="edgeStyle=none;rounded=0;orthogonalLoop=1;jettySize=auto;html=1;exitX=1;exitY=0.5;exitDx=0;exitDy=0;entryX=0;entryY=0.75;entryDx=0;entryDy=0;strokeColor=default;align=center;verticalAlign=middle;fontFamily=Helvetica;fontSize=11;fontColor=default;labelBackgroundColor=default;endArrow=none;endFill=0;" edge="1" parent="1" source="KYKL-_47aOYhPU-UNoqU-24" target="KYKL-_47aOYhPU-UNoqU-4">
          <mxGeometry relative="1" as="geometry" />
        </mxCell>
        <mxCell id="KYKL-_47aOYhPU-UNoqU-24" value="UserID" style="ellipse;whiteSpace=wrap;html=1;" vertex="1" parent="1">
          <mxGeometry x="368" y="670" width="90" height="40" as="geometry" />
        </mxCell>
        <mxCell id="KYKL-_47aOYhPU-UNoqU-37" style="edgeStyle=none;rounded=0;orthogonalLoop=1;jettySize=auto;html=1;exitX=1;exitY=0;exitDx=0;exitDy=0;strokeColor=default;align=center;verticalAlign=middle;fontFamily=Helvetica;fontSize=11;fontColor=default;labelBackgroundColor=default;endArrow=none;endFill=0;entryX=0.25;entryY=1;entryDx=0;entryDy=0;" edge="1" parent="1" source="KYKL-_47aOYhPU-UNoqU-25" target="KYKL-_47aOYhPU-UNoqU-4">
          <mxGeometry relative="1" as="geometry">
            <mxPoint x="503" y="630" as="targetPoint" />
          </mxGeometry>
        </mxCell>
        <mxCell id="KYKL-_47aOYhPU-UNoqU-25" value="Titel" style="ellipse;whiteSpace=wrap;html=1;" vertex="1" parent="1">
          <mxGeometry x="410" y="710" width="90" height="40" as="geometry" />
        </mxCell>
        <mxCell id="KYKL-_47aOYhPU-UNoqU-38" style="edgeStyle=none;rounded=0;orthogonalLoop=1;jettySize=auto;html=1;exitX=0.5;exitY=0;exitDx=0;exitDy=0;entryX=0.5;entryY=1;entryDx=0;entryDy=0;strokeColor=default;align=center;verticalAlign=middle;fontFamily=Helvetica;fontSize=11;fontColor=default;labelBackgroundColor=default;endArrow=none;endFill=0;" edge="1" parent="1" source="KYKL-_47aOYhPU-UNoqU-26" target="KYKL-_47aOYhPU-UNoqU-4">
          <mxGeometry relative="1" as="geometry" />
        </mxCell>
        <mxCell id="KYKL-_47aOYhPU-UNoqU-26" value="Beschreibung" style="ellipse;whiteSpace=wrap;html=1;" vertex="1" parent="1">
          <mxGeometry x="515" y="720" width="90" height="40" as="geometry" />
        </mxCell>
        <mxCell id="KYKL-_47aOYhPU-UNoqU-39" style="edgeStyle=none;rounded=0;orthogonalLoop=1;jettySize=auto;html=1;exitX=0.5;exitY=0;exitDx=0;exitDy=0;entryX=0.75;entryY=1;entryDx=0;entryDy=0;strokeColor=default;align=center;verticalAlign=middle;fontFamily=Helvetica;fontSize=11;fontColor=default;labelBackgroundColor=default;endArrow=none;endFill=0;" edge="1" parent="1" source="KYKL-_47aOYhPU-UNoqU-27" target="KYKL-_47aOYhPU-UNoqU-4">
          <mxGeometry relative="1" as="geometry" />
        </mxCell>
        <mxCell id="KYKL-_47aOYhPU-UNoqU-27" value="FÃ¤lligkeitsdatum" style="ellipse;whiteSpace=wrap;html=1;" vertex="1" parent="1">
          <mxGeometry x="627" y="690" width="90" height="40" as="geometry" />
        </mxCell>
        <mxCell id="KYKL-_47aOYhPU-UNoqU-33" style="edgeStyle=none;rounded=0;orthogonalLoop=1;jettySize=auto;html=1;exitX=0;exitY=1;exitDx=0;exitDy=0;entryX=1;entryY=0.25;entryDx=0;entryDy=0;strokeColor=default;align=center;verticalAlign=middle;fontFamily=Helvetica;fontSize=11;fontColor=default;labelBackgroundColor=default;endArrow=none;endFill=0;" edge="1" parent="1" source="KYKL-_47aOYhPU-UNoqU-28" target="KYKL-_47aOYhPU-UNoqU-4">
          <mxGeometry relative="1" as="geometry" />
        </mxCell>
        <mxCell id="KYKL-_47aOYhPU-UNoqU-28" value="Status" style="ellipse;whiteSpace=wrap;html=1;" vertex="1" parent="1">
          <mxGeometry x="680" y="570" width="90" height="40" as="geometry" />
        </mxCell>
        <mxCell id="KYKL-_47aOYhPU-UNoqU-40" style="edgeStyle=none;rounded=0;orthogonalLoop=1;jettySize=auto;html=1;exitX=0;exitY=0;exitDx=0;exitDy=0;entryX=1;entryY=0.75;entryDx=0;entryDy=0;strokeColor=default;align=center;verticalAlign=middle;fontFamily=Helvetica;fontSize=11;fontColor=default;labelBackgroundColor=default;endArrow=none;endFill=0;" edge="1" parent="1" source="KYKL-_47aOYhPU-UNoqU-29" target="KYKL-_47aOYhPU-UNoqU-4">
          <mxGeometry relative="1" as="geometry" />
        </mxCell>
        <mxCell id="KYKL-_47aOYhPU-UNoqU-29" value="PrioritÃ¤t" style="ellipse;whiteSpace=wrap;html=1;" vertex="1" parent="1">
          <mxGeometry x="680" y="638" width="90" height="40" as="geometry" />
        </mxCell>
        <mxCell id="KYKL-_47aOYhPU-UNoqU-47" style="edgeStyle=none;rounded=0;orthogonalLoop=1;jettySize=auto;html=1;exitX=0;exitY=0.5;exitDx=0;exitDy=0;strokeColor=default;align=center;verticalAlign=middle;fontFamily=Helvetica;fontSize=11;fontColor=default;labelBackgroundColor=default;endArrow=none;endFill=0;entryX=1;entryY=0.25;entryDx=0;entryDy=0;" edge="1" parent="1" source="KYKL-_47aOYhPU-UNoqU-9" target="KYKL-_47aOYhPU-UNoqU-5">
          <mxGeometry relative="1" as="geometry">
            <mxPoint x="890" y="340" as="targetPoint" />
          </mxGeometry>
        </mxCell>
        <mxCell id="KYKL-_47aOYhPU-UNoqU-61" style="edgeStyle=orthogonalEdgeStyle;rounded=0;orthogonalLoop=1;jettySize=auto;html=1;exitX=0;exitY=0.5;exitDx=0;exitDy=0;entryX=1.01;entryY=-0.223;entryDx=0;entryDy=0;strokeColor=default;align=center;verticalAlign=middle;fontFamily=Helvetica;fontSize=11;fontColor=default;labelBackgroundColor=default;endArrow=none;endFill=0;entryPerimeter=0;" edge="1" parent="1" source="KYKL-_47aOYhPU-UNoqU-50" target="KYKL-_47aOYhPU-UNoqU-73">
          <mxGeometry relative="1" as="geometry" />
        </mxCell>
        <mxCell id="KYKL-_47aOYhPU-UNoqU-50" value="geteilt mit" style="rhombus;whiteSpace=wrap;html=1;" vertex="1" parent="1">
          <mxGeometry x="520" y="358" width="80" height="80" as="geometry" />
        </mxCell>
        <mxCell id="KYKL-_47aOYhPU-UNoqU-65" style="edgeStyle=orthogonalEdgeStyle;rounded=0;orthogonalLoop=1;jettySize=auto;html=1;exitX=0;exitY=0.5;exitDx=0;exitDy=0;entryX=0.75;entryY=1;entryDx=0;entryDy=0;strokeColor=default;align=center;verticalAlign=middle;fontFamily=Helvetica;fontSize=11;fontColor=default;labelBackgroundColor=default;endArrow=none;endFill=0;" edge="1" parent="1" source="KYKL-_47aOYhPU-UNoqU-51" target="KYKL-_47aOYhPU-UNoqU-1">
          <mxGeometry relative="1" as="geometry" />
        </mxCell>
        <mxCell id="KYKL-_47aOYhPU-UNoqU-51" value="gehÃ¶rt zu" style="rhombus;whiteSpace=wrap;html=1;" vertex="1" parent="1">
          <mxGeometry x="378" y="450" width="80" height="80" as="geometry" />
        </mxCell>
        <mxCell id="KYKL-_47aOYhPU-UNoqU-63" style="edgeStyle=orthogonalEdgeStyle;rounded=0;orthogonalLoop=1;jettySize=auto;html=1;exitX=0;exitY=0.5;exitDx=0;exitDy=0;entryX=0.75;entryY=0;entryDx=0;entryDy=0;strokeColor=default;align=center;verticalAlign=middle;fontFamily=Helvetica;fontSize=11;fontColor=default;labelBackgroundColor=default;endArrow=none;endFill=0;" edge="1" parent="1" source="KYKL-_47aOYhPU-UNoqU-52" target="KYKL-_47aOYhPU-UNoqU-4">
          <mxGeometry relative="1" as="geometry" />
        </mxCell>
        <mxCell id="KYKL-_47aOYhPU-UNoqU-52" value="erstellt" style="rhombus;whiteSpace=wrap;html=1;" vertex="1" parent="1">
          <mxGeometry x="650" y="440" width="80" height="80" as="geometry" />
        </mxCell>
        <mxCell id="KYKL-_47aOYhPU-UNoqU-57" style="edgeStyle=orthogonalEdgeStyle;rounded=0;orthogonalLoop=1;jettySize=auto;html=1;exitX=0;exitY=0.5;exitDx=0;exitDy=0;entryX=0.75;entryY=0;entryDx=0;entryDy=0;strokeColor=default;align=center;verticalAlign=middle;fontFamily=Helvetica;fontSize=11;fontColor=default;labelBackgroundColor=default;endArrow=none;endFill=0;" edge="1" parent="1" source="KYKL-_47aOYhPU-UNoqU-54" target="KYKL-_47aOYhPU-UNoqU-1">
          <mxGeometry relative="1" as="geometry" />
        </mxCell>
        <mxCell id="KYKL-_47aOYhPU-UNoqU-54" value="enthÃ¤lt" style="rhombus;whiteSpace=wrap;html=1;" vertex="1" parent="1">
          <mxGeometry x="378" y="210" width="80" height="80" as="geometry" />
        </mxCell>
        <mxCell id="KYKL-_47aOYhPU-UNoqU-59" style="edgeStyle=orthogonalEdgeStyle;rounded=0;orthogonalLoop=1;jettySize=auto;html=1;exitX=1;exitY=0.5;exitDx=0;exitDy=0;entryX=0.25;entryY=0;entryDx=0;entryDy=0;strokeColor=default;align=center;verticalAlign=middle;fontFamily=Helvetica;fontSize=11;fontColor=default;labelBackgroundColor=default;endArrow=none;endFill=0;" edge="1" parent="1" source="KYKL-_47aOYhPU-UNoqU-55" target="KYKL-_47aOYhPU-UNoqU-5">
          <mxGeometry relative="1" as="geometry" />
        </mxCell>
        <mxCell id="KYKL-_47aOYhPU-UNoqU-55" value="erstellt" style="rhombus;whiteSpace=wrap;html=1;" vertex="1" parent="1">
          <mxGeometry x="650" y="220" width="80" height="80" as="geometry" />
        </mxCell>
        <mxCell id="KYKL-_47aOYhPU-UNoqU-64" style="edgeStyle=orthogonalEdgeStyle;rounded=0;orthogonalLoop=1;jettySize=auto;html=1;exitX=1;exitY=0.5;exitDx=0;exitDy=0;endArrow=none;endFill=0;" edge="1" parent="1" source="KYKL-_47aOYhPU-UNoqU-51">
          <mxGeometry relative="1" as="geometry">
            <mxPoint x="520" y="570" as="targetPoint" />
          </mxGeometry>
        </mxCell>
        <mxCell id="KYKL-_47aOYhPU-UNoqU-66" value="1" style="text;html=1;align=center;verticalAlign=middle;resizable=0;points=[];autosize=1;strokeColor=none;fillColor=none;" vertex="1" parent="1">
          <mxGeometry x="790" y="318" width="30" height="30" as="geometry" />
        </mxCell>
        <mxCell id="KYKL-_47aOYhPU-UNoqU-67" value="0..*" style="text;html=1;align=center;verticalAlign=middle;resizable=0;points=[];autosize=1;strokeColor=none;fillColor=none;" vertex="1" parent="1">
          <mxGeometry x="580" y="158" width="40" height="30" as="geometry" />
        </mxCell>
        <mxCell id="KYKL-_47aOYhPU-UNoqU-68" value="1" style="text;html=1;align=center;verticalAlign=middle;resizable=0;points=[];autosize=1;strokeColor=none;fillColor=none;" vertex="1" parent="1">
          <mxGeometry x="317" y="317" width="30" height="30" as="geometry" />
        </mxCell>
        <mxCell id="KYKL-_47aOYhPU-UNoqU-69" value="0..*" style="text;html=1;align=center;verticalAlign=middle;resizable=0;points=[];autosize=1;strokeColor=none;fillColor=none;" vertex="1" parent="1">
          <mxGeometry x="495" y="158" width="40" height="30" as="geometry" />
        </mxCell>
        <mxCell id="KYKL-_47aOYhPU-UNoqU-70" value="1..*" style="text;html=1;align=center;verticalAlign=middle;resizable=0;points=[];autosize=1;strokeColor=none;fillColor=none;" vertex="1" parent="1">
          <mxGeometry x="735" y="385" width="40" height="30" as="geometry" />
        </mxCell>
        <mxCell id="KYKL-_47aOYhPU-UNoqU-71" value="1..*" style="text;html=1;align=center;verticalAlign=middle;resizable=0;points=[];autosize=1;strokeColor=none;fillColor=none;" vertex="1" parent="1">
          <mxGeometry x="351" y="382" width="40" height="30" as="geometry" />
        </mxCell>
        <mxCell id="KYKL-_47aOYhPU-UNoqU-72" value="0..*" style="text;html=1;align=center;verticalAlign=middle;resizable=0;points=[];autosize=1;strokeColor=none;fillColor=none;" vertex="1" parent="1">
          <mxGeometry x="513" y="545" width="40" height="30" as="geometry" />
        </mxCell>
        <mxCell id="KYKL-_47aOYhPU-UNoqU-73" value="0,1" style="text;html=1;align=center;verticalAlign=middle;resizable=0;points=[];autosize=1;strokeColor=none;fillColor=none;" vertex="1" parent="1">
          <mxGeometry x="315" y="393" width="40" height="30" as="geometry" />
        </mxCell>
        <mxCell id="KYKL-_47aOYhPU-UNoqU-74" value="1" style="text;html=1;align=center;verticalAlign=middle;resizable=0;points=[];autosize=1;strokeColor=none;fillColor=none;" vertex="1" parent="1">
          <mxGeometry x="795" y="393" width="30" height="30" as="geometry" />
        </mxCell>
        <mxCell id="KYKL-_47aOYhPU-UNoqU-75" value="0..*" style="text;html=1;align=center;verticalAlign=middle;resizable=0;points=[];autosize=1;strokeColor=none;fillColor=none;" vertex="1" parent="1">
          <mxGeometry x="581" y="546" width="40" height="30" as="geometry" />
        </mxCell>
        <mxCell id="KYKL-_47aOYhPU-UNoqU-78" value="ER-Diagramm" style="shape=umlFrame;whiteSpace=wrap;html=1;pointerEvents=0;width=110;height=30;" vertex="1" parent="1">
          <mxGeometry x="40" y="10" width="1080" height="780" as="geometry" />
        </mxCell>
        <mxCell id="KYKL-_47aOYhPU-UNoqU-79" value="sichtbar" style="ellipse;whiteSpace=wrap;html=1;" vertex="1" parent="1">
          <mxGeometry x="450" y="420" width="90" height="40" as="geometry" />
        </mxCell>
        <mxCell id="KYKL-_47aOYhPU-UNoqU-81" style="edgeStyle=none;rounded=0;orthogonalLoop=1;jettySize=auto;html=1;exitX=1;exitY=0;exitDx=0;exitDy=0;endArrow=none;endFill=0;entryX=0;entryY=1;entryDx=0;entryDy=0;" edge="1" parent="1" source="KYKL-_47aOYhPU-UNoqU-79" target="KYKL-_47aOYhPU-UNoqU-50">
          <mxGeometry relative="1" as="geometry">
            <mxPoint x="550" y="430" as="targetPoint" />
          </mxGeometry>
        </mxCell>
        <mxCell id="KYKL-_47aOYhPU-UNoqU-84" style="edgeStyle=orthogonalEdgeStyle;rounded=0;orthogonalLoop=1;jettySize=auto;html=1;exitX=1;exitY=0.5;exitDx=0;exitDy=0;entryX=0;entryY=0.25;entryDx=0;entryDy=0;endArrow=none;endFill=0;" edge="1" parent="1" source="KYKL-_47aOYhPU-UNoqU-83" target="KYKL-_47aOYhPU-UNoqU-5">
          <mxGeometry relative="1" as="geometry" />
        </mxCell>
        <mxCell id="KYKL-_47aOYhPU-UNoqU-83" value="erstellt" style="rhombus;whiteSpace=wrap;html=1;" vertex="1" parent="1">
          <mxGeometry x="520" y="270" width="80" height="80" as="geometry" />
        </mxCell>
        <mxCell id="KYKL-_47aOYhPU-UNoqU-85" style="edgeStyle=orthogonalEdgeStyle;rounded=0;orthogonalLoop=1;jettySize=auto;html=1;exitX=0.026;exitY=0.507;exitDx=0;exitDy=0;strokeColor=default;align=center;verticalAlign=middle;fontFamily=Helvetica;fontSize=11;fontColor=default;labelBackgroundColor=default;endArrow=none;endFill=0;exitPerimeter=0;entryX=1;entryY=0.25;entryDx=0;entryDy=0;" edge="1" parent="1" source="KYKL-_47aOYhPU-UNoqU-83" target="KYKL-_47aOYhPU-UNoqU-1">
          <mxGeometry relative="1" as="geometry">
            <mxPoint x="518.26" y="307.96" as="sourcePoint" />
            <mxPoint x="350" y="340" as="targetPoint" />
          </mxGeometry>
        </mxCell>
        <mxCell id="KYKL-_47aOYhPU-UNoqU-86" value="1" style="text;html=1;align=center;verticalAlign=middle;resizable=0;points=[];autosize=1;strokeColor=none;fillColor=none;" vertex="1" parent="1">
          <mxGeometry x="735" y="328" width="30" height="30" as="geometry" />
        </mxCell>
        <mxCell id="KYKL-_47aOYhPU-UNoqU-87" value="0..*" style="text;html=1;align=center;verticalAlign=middle;resizable=0;points=[];autosize=1;strokeColor=none;fillColor=none;" vertex="1" parent="1">
          <mxGeometry x="350" y="328" width="40" height="30" as="geometry" />
        </mxCell>
      </root>
    </mxGraphModel>
  </diagram>
</mxfile>
